<?xml version="1.0" encoding="utf-8"?>
<!-- Generator: Adobe Illustrator 18.1.1, SVG Export Plug-In . SVG Version: 6.00 Build 0)  -->
<!DOCTYPE svg PUBLIC "-//W3C//DTD SVG 1.1//EN" "http://www.w3.org/Graphics/SVG/1.1/DTD/svg11.dtd">
<svg version="1.1" id="Layer_1" xmlns="http://www.w3.org/2000/svg" xmlns:xlink="http://www.w3.org/1999/xlink" x="0px" y="0px"
	 viewBox="68.6 68.6 262.7 262.7" enable-background="new 68.6 68.6 262.7 262.7" xml:space="preserve">
<g>
	<g>
		<g>
			<g>
				<defs>
					<circle id="SVGID_1_" cx="200" cy="200" r="131.4"/>
				</defs>
				<clipPath id="SVGID_2_">
					<use xlink:href="#SVGID_1_"  overflow="visible"/>
				</clipPath>
				<g clip-path="url(#SVGID_2_)">
					<circle fill="#46427B" cx="200" cy="200" r="131.4"/>
					<rect x="76" y="258.6" fill="#58595B" width="244.3" height="11.2"/>
					<rect x="76" y="258.6" fill="#4D4D4F" width="244.3" height="3.3"/>
					<rect x="155" y="211" fill="#5D57A2" width="28.5" height="47.6"/>
					<rect x="215.4" y="194.8" fill="#5D57A2" width="31.5" height="63.8"/>
					<rect x="76" y="269.8" fill="#4D4D4F" width="244.3" height="61.6"/>
					<circle fill="none" cx="200" cy="200" r="131.4"/>
					<path fill="#D0D2D3" d="M198,270.4c-0.9,0-1.6-0.7-1.6-1.6v-56.2c0-0.9,0.7-1.6,1.6-1.6c0.9,0,1.6,0.7,1.6,1.6v56.2
						C199.6,269.6,198.9,270.4,198,270.4z"/>
					<rect x="174.8" y="249.6" fill="#404041" width="46.7" height="3.2"/>
					<polygon fill="#587088" points="192.5,216.7 180.8,190.7 219.4,181.5 203.5,216.7 					"/>
					<polygon fill="#556476" points="193.5,212.6 183.3,189.9 216.9,181.9 203.1,212.6 					"/>
					<circle fill="#4D5560" cx="198" cy="213.3" r="6.5"/>
					<path fill="#D0D2D3" d="M165.6,270.5c-0.3,0-0.6-0.1-0.8-0.2c-0.8-0.5-1-1.4-0.6-2.2l32.5-56.3c0.5-0.8,1.4-1,2.2-0.6
						c0.8,0.5,1,1.4,0.6,2.2l-32.5,56.3C166.7,270.2,166.1,270.5,165.6,270.5z"/>
					<path fill="#D0D2D3" d="M230.5,270.5c-0.6,0-1.1-0.3-1.4-0.8l-32.5-56.3c-0.5-0.8-0.2-1.7,0.6-2.2c0.8-0.5,1.7-0.2,2.2,0.6
						l32.5,56.3c0.5,0.8,0.2,1.7-0.6,2.2C231.1,270.4,230.8,270.5,230.5,270.5z"/>
					<circle fill="#3D3F45" cx="198" cy="213.3" r="5.6"/>
					<g>
						<circle fill="#8AC1E8" cx="236.5" cy="158.1" r="14.2"/>
						<g>
							<path fill="#0F8ECE" d="M246.9,170.3l-27,15.6c-2,1.2-4.6,0.5-5.8-1.6l-5.6-9.6l-6.3-10.8c-1.2-2-0.5-4.6,1.6-5.8l27-15.6
								L246.9,170.3z"/>
							<path fill="#0F8ECE" d="M214,184.3l-30.9,17.8c-2,1.2-4.6,0.5-5.8-1.6l-3.5-6l-4.1-7.2c-1.2-2-0.5-4.6,1.6-5.8l30.9-17.8
								l6.3,10.8L214,184.3z"/>
							<path fill="#F79739" d="M145.8,222.1c0.5,0.9,0.2,2-0.7,2.5l-0.8,0.5c-0.9,0.5-2,0.2-2.5-0.7l-10.5-18.1
								c-0.5-0.9-0.2-2,0.7-2.5l0.8-0.5c0.9-0.5,2-0.2,2.5,0.7L145.8,222.1z"/>
							
								<rect x="138.1" y="195.6" transform="matrix(-0.866 0.5 -0.5 -0.866 394.9836 301.2086)" fill="#0F8ECE" width="38.1" height="15.8"/>
							<path fill="#2E67B1" d="M246.9,170.3l-27,15.6c-2,1.2-4.6,0.5-5.8-1.6l-5.7-9.9l30.7-17.7L246.9,170.3z"/>
							<path fill="#2E67B1" d="M214,184.3l-30.9,17.8c-2,1.2-4.6,0.5-5.8-1.6l-3.6-6.3l34.5-19.9L214,184.3z"/>
							
								<rect x="140.1" y="203.4" transform="matrix(-0.866 0.5 -0.5 -0.866 400.571 306.9313)" fill="#2E67B1" width="38.1" height="7.5"/>
							<path fill="#F37B35" d="M145.8,222.1c0.5,0.9,0.2,2-0.7,2.5l-0.8,0.5c-0.9,0.5-2,0.2-2.5-0.7l-5.1-8.7l3.9-2.3L145.8,222.1z"
								/>
							<path fill="#F79739" d="M253.6,166.4c0.5,0.9,0.2,2-0.7,2.5l-3.5,2c-0.9,0.5-2,0.2-2.5-0.7l-16.1-27.8
								c-0.5-0.9-0.2-2,0.7-2.5l3.5-2c0.9-0.5,2-0.2,2.5,0.7L253.6,166.4z"/>
							<path fill="#F37B35" d="M253.6,166.4c0.5,0.9,0.2,2-0.7,2.5l-3.5,2c-0.9,0.5-2,0.2-2.5-0.7l-7.8-13.6l6.7-3.9L253.6,166.4z"
								/>
						</g>
						
							<rect x="205.8" y="162.9" transform="matrix(-0.866 0.5 -0.5 -0.866 473.7656 222.4785)" fill="#FFDE28" width="2.5" height="23.7"/>
						
							<rect x="171.4" y="186.7" transform="matrix(-0.866 0.5 -0.5 -0.866 419.6282 277.1614)" fill="#FFDE28" width="2.5" height="16.1"/>
						
							<rect x="208.9" y="174.2" transform="matrix(-0.866 0.5 -0.5 -0.866 482.0901 230.7086)" fill="#FDCE09" width="2.5" height="11.4"/>
						
							<rect x="173.5" y="194.5" transform="matrix(-0.866 0.5 -0.5 -0.866 425.2845 282.8151)" fill="#FDCE09" width="2.5" height="7.8"/>
					</g>
					<g>
						<polygon fill="#9D99C6" points="234.5,78.6 235.7,83.6 233.5,83.6 						"/>
						<polygon fill="#9D99C6" points="234.5,88.5 233.5,83.6 235.7,83.6 						"/>
						<polygon fill="#9D99C6" points="229.6,83.6 234.5,82.5 234.5,84.6 						"/>
						<polygon fill="#9D99C6" points="239.5,83.6 234.5,84.6 234.5,82.5 						"/>
					</g>
					<g>
						<polygon fill="#9D99C6" points="163.9,95.9 165.1,100.8 162.9,100.8 						"/>
						<polygon fill="#9D99C6" points="163.9,105.7 162.9,100.8 165.1,100.8 						"/>
						<polygon fill="#9D99C6" points="159,100.8 163.9,99.7 163.9,101.9 						"/>
						<polygon fill="#9D99C6" points="168.9,100.8 163.9,101.9 163.9,99.7 						"/>
					</g>
					<g>
						<polygon fill="#9D99C6" points="151,81.1 152.1,86.1 149.9,86.1 						"/>
						<polygon fill="#9D99C6" points="151,91 149.9,86.1 152.1,86.1 						"/>
						<polygon fill="#9D99C6" points="146.1,86.1 151,85 151,87.1 						"/>
						<polygon fill="#9D99C6" points="155.9,86.1 151,87.1 151,85 						"/>
					</g>
					<g>
						<polygon fill="#9D99C6" points="239.1,95.9 240.2,100.8 238,100.8 						"/>
						<polygon fill="#9D99C6" points="239.1,105.7 238,100.8 240.2,100.8 						"/>
						<polygon fill="#9D99C6" points="234.1,100.8 239.1,99.7 239.1,101.9 						"/>
						<polygon fill="#9D99C6" points="244,100.8 239.1,101.9 239.1,99.7 						"/>
					</g>
					<g>
						<polygon fill="#9D99C6" points="98.1,128.1 99.2,133 97.1,133 						"/>
						<polygon fill="#9D99C6" points="98.1,137.9 97.1,133 99.2,133 						"/>
						<polygon fill="#9D99C6" points="93.2,133 98.1,131.9 98.1,134.1 						"/>
						<polygon fill="#9D99C6" points="103.1,133 98.1,134.1 98.1,131.9 						"/>
					</g>
					<g>
						<polygon fill="#9D99C6" points="299.6,123.2 300.7,128.1 298.6,128.1 						"/>
						<polygon fill="#9D99C6" points="299.6,133 298.6,128.1 300.7,128.1 						"/>
						<polygon fill="#9D99C6" points="294.7,128.1 299.6,127 299.6,129.1 						"/>
						<polygon fill="#9D99C6" points="304.5,128.1 299.6,129.1 299.6,127 						"/>
					</g>
					<g>
						<polygon fill="#9D99C6" points="270.2,98.7 271.3,103.6 269.1,103.6 						"/>
						<polygon fill="#9D99C6" points="270.2,108.5 269.1,103.6 271.3,103.6 						"/>
						<polygon fill="#9D99C6" points="265.3,103.6 270.2,102.5 270.2,104.7 						"/>
						<polygon fill="#9D99C6" points="275.1,103.6 270.2,104.7 270.2,102.5 						"/>
					</g>
					<g>
						<polygon fill="#9D99C6" points="126.3,101.1 127.3,106.1 125.2,106.1 						"/>
						<polygon fill="#9D99C6" points="126.3,111 125.2,106.1 127.3,106.1 						"/>
						<polygon fill="#9D99C6" points="121.3,106.1 126.3,105 126.3,107.1 						"/>
						<polygon fill="#9D99C6" points="131.2,106.1 126.3,107.1 126.3,105 						"/>
					</g>
					<g>
						<polygon fill="#9D99C6" points="204.5,91.6 205.6,96.5 203.5,96.5 						"/>
						<polygon fill="#9D99C6" points="204.5,101.5 203.5,96.6 205.6,96.6 						"/>
						<polygon fill="#9D99C6" points="199.6,96.5 204.5,95.5 204.5,97.6 						"/>
						<polygon fill="#9D99C6" points="209.4,96.5 204.5,97.6 204.5,95.5 						"/>
					</g>
					<g>
						<polygon fill="#9D99C6" points="198.1,73.7 199.2,78.6 197.1,78.6 						"/>
						<polygon fill="#9D99C6" points="198.1,83.6 197.1,78.7 199.2,78.7 						"/>
						<polygon fill="#9D99C6" points="193.2,78.6 198.1,77.6 198.1,79.7 						"/>
						<polygon fill="#9D99C6" points="203.1,78.6 198.1,79.7 198.1,77.6 						"/>
					</g>
					<rect x="269.6" y="218.8" fill="#5D57A2" width="37.9" height="39.8"/>
					<rect x="267.8" y="216.8" fill="#5D57A2" width="41.5" height="4"/>
					<rect x="84.2" y="229.7" fill="#5D57A2" width="37.9" height="28.9"/>
					<rect x="82.4" y="227.9" fill="#5D57A2" width="41.5" height="4"/>
					<g>
						<rect x="104.5" y="221.3" fill="#5D57A2" width="11.6" height="11.6"/>
						<polygon fill="#5D57A2" points="110.3,211 117.5,221.3 103.1,221.3 						"/>
					</g>
					<rect x="140.8" y="226.7" fill="#5D57A2" width="28.5" height="31.9"/>
				</g>
			</g>
		</g>
	</g>
</g>
</svg>
