<?xml version="1.0" encoding="utf-8"?>
<!-- Generator: Adobe Illustrator 18.1.1, SVG Export Plug-In . SVG Version: 6.00 Build 0)  -->
<!DOCTYPE svg PUBLIC "-//W3C//DTD SVG 1.1//EN" "http://www.w3.org/Graphics/SVG/1.1/DTD/svg11.dtd">
<svg version="1.1" id="Layer_1" xmlns="http://www.w3.org/2000/svg" xmlns:xlink="http://www.w3.org/1999/xlink" x="0px" y="0px"
	 viewBox="68.6 68.6 262.7 262.7" enable-background="new 68.6 68.6 262.7 262.7" xml:space="preserve">
<g>
	<g>
		<circle fill="#41B0B3" cx="200" cy="200" r="130.9"/>
		<g>
			<g>
				<g>
					<defs>
						<circle id="SVGID_1_" cx="200" cy="200" r="130.9"/>
					</defs>
					<clipPath id="SVGID_2_">
						<use xlink:href="#SVGID_1_"  overflow="visible"/>
					</clipPath>
					<rect x="72.9" y="254.9" clip-path="url(#SVGID_2_)" fill="#C3996B" width="257" height="77.2"/>
				</g>
			</g>
		</g>
		<rect x="136.4" y="183.5" fill="#F0D328" width="127.3" height="92.7"/>
		<polygon fill="#FFDE28" points="263.6,276.2 136.4,276.2 136.4,183.5 		"/>
		<polygon fill="#FFDE28" points="136.4,183.5 263.6,183.5 200,135.3 		"/>
		<polygon fill="#F8AC5B" points="146.8,183.5 136.4,183.5 200,229.8 263.6,183.5 256.5,183.5 253.2,183.5 200,143.2 		"/>
		<polygon fill="#FFFFFF" points="256.3,149.9 146.6,149.9 146.6,191.1 200,229.8 256.3,188.9 		"/>
		<polygon fill="#FFFFFF" points="256.3,149.9 200,149.9 200,229.8 256.3,188.9 		"/>
		<g>
			<path fill="#6D6E70" d="M177.1,168.2c-0.4,3.1-0.1,5.8,0.1,8.7c0.1,1.6-0.1,3.3,0,5.1c0.1,0.6,0.2,1.9,0.1,2.4
				c-0.2,0.6-3.2,0.4-3.3-0.1c-0.1-1-0.3-10.1-0.3-11.3c0-3.1,0.1-4.4-0.2-4.8c-0.4-0.4-3-0.1-3.7-0.2c-0.4-0.1-0.5-3-0.1-3
				c0.9-0.1,2.1-0.1,3.2-0.1c0.4,0.1,7.5,0.1,7.8,0c0.4-0.1,0.1,3.1,0.1,3.1C180.4,168.1,178.7,167.9,177.1,168.2z"/>
			<path fill="#6D6E70" d="M185.9,184.6c-0.8,0.3-2.3,0.3-2.9-0.3c0,0,0.2-7,0.2-10.3c0-2.3-0.3-4.2-0.3-6.4c0-0.5,0-2.7,0-2.7
				c0.3-0.4,1.4-0.3,2.3-0.1c0.4,0.1,0.7,0.1,1,0.3c0.1,2.2-0.1,5.8,0.2,7.7c1.1,0.1,2.4,0.3,3.2,0.1c0.7-1.5,0.1-5.8,0.3-7.7
				c0.1-0.8,0.6-0.5,1-0.6c0.9-0.2,1.9,0.1,2.1,0.6c-0.1,0.2,0.1,3.5,0.1,4.5c0,1.2,0.1,2.4,0.1,3.6c0.1,1.6-0.1,3.1-0.1,4.5
				c-0.1,0.9,0.1,1.6,0.1,2.5c-0.1,1.2-0.1,2.7-0.1,4c-0.1,0.2-2.1,0.3-2.8,0.1c-0.5-1.1-0.4-3.5-0.4-3.5c0.1-0.9,0.1-2.3,0-3.8
				c-0.1-0.6,0.1-1.1-0.1-1.5c-0.2,0.1-3.5-0.2-3.6,0.1c-0.1,0.5-0.2,4.1-0.2,5.5C186,182.5,186.2,183.6,185.9,184.6z"/>
			<path fill="#6D6E70" d="M202.7,170.2c0.3,2.1,0.4,3,0.7,4.9c0.1,0.7,0.3,1.4,0.3,1.8c0.3,2.6,0.5,4.6,0.7,7.2
				c-0.4,1.1-2.8,0.4-2.8,0.4c-0.7-1-0.1-3.1-0.6-3.9c-1.1-0.1-2.5-0.1-3.2-0.1c-0.6,1.2-0.1,3.7-0.9,4.2c-0.5,0.4-2.4,0-2.4,0
				c-0.3-0.7,0.7-6.6,0.9-7.7c0.1-1.2,0.4-2.4,0.6-3.5c0.3-1.6,0.4-2.6,0.6-4.2c0.1-0.4,0.9-3.6,0.9-4.1c0,0,0.2-0.1,0.5-0.1
				c0.3-0.1,1.1-0.1,1.4-0.1c1.5-0.1,1.9,0.1,2.4,0.2C202.2,166.2,202.4,168.4,202.7,170.2z M197.8,177.7c0.9,0.2,2.1,0.2,2.8,0.1
				c-0.2-3-1.2-9.2-1.2-9.2c-0.5,1.2-0.7,2.9-1,4.6C198.2,174.8,197.8,176.1,197.8,177.7z"/>
			<path fill="#6D6E70" d="M213.4,170.6c-0.1-1,0-2,0-2.9c0-0.9-0.2-2,0.2-2.4c0.6-0.6,3-0.2,3-0.2s0.1,2.7,0.1,4.1
				c-0.1,2.3,0.2,5,0.2,7.7c0,1.2-0.1,4.7-0.1,5.1c0,0.2,0.1,2.4-0.1,2.6c0,0-2,0.2-3,0c0,0-0.9-2-1.3-3.1c-0.4-1-2.2-6.4-3.1-8.3
				c-0.3,1.5,0.1,11.8,0.1,11.8s-0.4-0.1-1.6,0.1c-1.7,0.1-1.7-0.5-1.7-0.5s0-8.5,0-9.3c0-1.7,0.1-4.1-0.1-6.5c-0.1-1-0.1-2.7,0-3.1
				c0.1-0.2,2.6-0.6,3.4-0.3c0.5,0.3,3.5,9,4.2,10.7C213.6,175.1,213.4,171.6,213.4,170.6z"/>
			<path fill="#6D6E70" d="M227.2,177.8c0.2,0.3,1.4,2.9,1.6,3.2c0.7,1.1,1.2,2,1.7,3.3c0.2,0.6-2.2,0.3-2.8,0.3
				c-0.6,0-2-3.1-2.2-3.5c-0.3-0.5-0.5-0.8-0.9-1.4c-0.1-0.3-1.4-2.3-1.7-2.1c-0.3,0.1-0.1,3.8-0.1,5.1c0,0.7,0.2,1.3-0.1,2
				c-0.6,0.3-3,0.1-3,0.1c-0.2-0.6-0.2-1.1-0.2-2.3c-0.1-3.3-0.1-7.4,0-10.8c0.1-0.9-0.1-1.7,0-2.6c0.1-1.2,0-4.1,0-4.1s3-0.4,3.3,0
				c0,0-0.1,3.8,0,7.1c1.3-1,2.3-3.7,3.3-5.5c0.5-0.8,0.6-1.6,1.4-1.7c1.1-0.1,2.9-0.1,2.8,0.2c-0.3,0.9-1.2,3-1.7,3.8
				c-1.1,1.9-2,4.1-3.1,6C226.2,176,226.7,176.8,227.2,177.8z"/>
			<path fill="#6D6E70" d="M188.2,192.2c0.3-0.6,0.6-2.6,1.2-3.8c0.9-0.2,2.1-0.2,3.1,0.1c0.1,0.1-1.2,3.8-1.6,4.7
				c-1.1,2.8-1.2,4-2.3,6.6c0.1,1.4-0.1,2.8-0.1,3.9c0.1,0.9-0.1,3.2-0.1,3.9c-0.1,0.7-0.2,0.5-1.6,0.5c-0.9,0-1.5,0.1-1.6-0.8
				c-0.2-1.2-0.1-4.1-0.1-5.5c0.1-1.5-0.1-2.2-0.1-2.2c-0.1-0.5-1.1-2.6-1.2-2.9c-1.1-2.1-3-8.2-2.8-8.3c1-0.2,3-0.3,3.1,0.1
				c0.1,0.5,0.6,1.7,0.8,2.3c0.5,1.6,1.3,4,1.7,5.1C187.3,195,187.8,193.5,188.2,192.2z"/>
			<path fill="#6D6E70" d="M194.2,194.8c0.1-1.3,0.2-2.8,0.6-3.8c0.5-1.2,1.5-2,2.4-2.6c1.8-0.3,4-0.1,5.2,1.2
				c0.8,0.8,1.4,2.7,1.6,4c0.1,0.9,0.1,2,0.1,2.7c0.1,1.6,0.3,3.1,0.1,4.6c-0.2,2.3-0.4,4.8-1.5,6.2c-1.6,2-6.3,1.1-7.4-0.7
				C193.6,203.7,193.9,198.6,194.2,194.8z M197.2,199.8c0,0.4,0.1,1,0.1,1.2c0.1,0.4,0.1,1.6,0.4,2.5c0.3,1.1,0.9,2.4,2.1,1.8
				c0.7-0.9,0.9-2.4,0.9-3.7c0.2-2.5-0.1-4.2-0.2-6.2c-0.1-2-0.1-4.2-1.8-4.2c-1.2,0.6-1.1,2.3-1.2,4.3
				C197.5,197,197.3,198.6,197.2,199.8z"/>
			<path fill="#6D6E70" d="M209.7,197.3c0.1,1,0.1,1.5,0.1,2.4c0.1,1.6,0.1,3.1,0.4,4.1c0.2,0.7,0.5,1.7,1.8,1.8
				c1.6,0.1,2-2.8,2-4.7c0-1.6-0.1-3.5-0.1-5.2c0-1.6-0.4-5.9-0.3-7.3c0.1-0.3,1.1-0.3,1.8-0.3c0.6,0.1,1.2-0.1,1.5,0.4
				c0.4,0.6,0.2,4.2,0.3,5c0.1,0.7,0.1,1.4,0.1,2.2c-0.1,1.6,0.2,3.3,0.1,5c-0.1,2,0.4,4.3-1.4,6.1c-0.7,0.7-1.6,1.2-2.1,1.4
				c-4,0.9-5.8-1.1-6.8-3.9c-0.4-1.1-0.4-6-0.4-7.1c-0.2-2.9-0.1-6.5,0.1-8.8c1-0.2,2.9-0.2,3.1,0
				C209.8,191.1,209.6,194.4,209.7,197.3z"/>
		</g>
	</g>
</g>
</svg>
