<?xml version="1.0" encoding="utf-8"?>
<!-- Generator: Adobe Illustrator 18.1.1, SVG Export Plug-In . SVG Version: 6.00 Build 0)  -->
<!DOCTYPE svg PUBLIC "-//W3C//DTD SVG 1.1//EN" "http://www.w3.org/Graphics/SVG/1.1/DTD/svg11.dtd">
<svg version="1.1" id="Layer_1" xmlns="http://www.w3.org/2000/svg" xmlns:xlink="http://www.w3.org/1999/xlink" x="0px" y="0px"
	 viewBox="68.6 68.6 262.7 262.7" enable-background="new 68.6 68.6 262.7 262.7" xml:space="preserve">
<g>
	<circle fill="#99D6D8" cx="200" cy="200" r="130.9"/>
	<g>
		<g>
			<path fill="#32A349" d="M200.5,233.3c0.1,0,0.1,0,0.1-0.1c0.4-0.1,0.6-0.5,0.5-0.9c-1.8-5.6-12.1-10.2-12.5-10.3
				c-0.4-0.2-0.8,0-1,0.4c-0.2,0.4,0,0.8,0.4,1c0.1,0.1,10.2,4.4,11.7,9.4C199.8,233.1,200.1,233.3,200.5,233.3z"/>
			<g>
				<path fill="#39B24A" d="M181.7,237.2c7.2-2.3,11.7-8.3,10.1-13.5c-1.6-5.2-8.8-7.6-16-5.3c-7.2,2.3-17.6,15.9-17.6,15.9
					S174.5,239.5,181.7,237.2z"/>
				<path fill="#32A349" d="M181.7,237.2c7.2-2.3,11.7-8.3,10.1-13.5l-33.6,10.6C158.2,234.3,174.5,239.5,181.7,237.2z"/>
			</g>
			<path fill="#2A9546" d="M201.9,230.3c1.2,0,2.2-1,2.2-2.2c0.1-5.4,5.2-11.4,7.2-13.3c0.9-0.9,0.9-2.2,0.1-3.1
				c-0.9-0.9-2.2-0.9-3.1-0.1c-0.4,0.4-8.5,8.2-8.6,16.5C199.6,229.3,200.7,230.3,201.9,230.3L201.9,230.3z"/>
			<g>
				<path fill="#32A349" d="M216.8,225.2c-7.6-4.2-10.4-13.9-6.2-21.5c4.2-7.6,13.9-10.4,21.5-6.2c7.6,4.2,14.1,25.9,14.1,25.9
					S224.4,229.4,216.8,225.2z"/>
				<path fill="#2A9546" d="M216.8,225.2c-7.6-4.2-10.4-13.9-6.2-21.5l35.7,19.8C246.3,223.5,224.4,229.4,216.8,225.2z"/>
			</g>
			<path fill="#32A349" d="M201.8,249c1.2,0,2.2-0.9,2.2-2.1c0.1-1.6,0.9-33-2.4-50.9c-0.5-2.8-2.6-6.9-3.4-8.8
				c-0.5-1.2-1.7-1.7-2.8-1.3c-1.2,0.5-1.9,1.8-1.3,2.8c4.1,7.3,5.7,22.3,5,40.4c-0.4,9.8,0.5,17.4,0.5,17.6
				c-0.1,1.2,0.9,2.2,2.1,2.3C201.7,249,201.7,249,201.8,249z"/>
			<g>
				<path fill="#39B24A" d="M185.8,194.8c5.4,1.6,11-1.5,12.5-6.7s-1.6-10.7-7-12.3c-5.4-1.6-18,5.1-18,5.1S180.4,193.2,185.8,194.8
					z"/>
				<path fill="#32A349" d="M185.8,194.8c5.4,1.6,11-1.5,12.5-6.7l-25.1-7.2C173.2,180.9,180.4,193.2,185.8,194.8z"/>
			</g>
			<path fill="#2A9546" d="M201.8,249c1.2,0,2.2-0.9,2.2-2.1c0.1-1.6,0.9-33-2.4-50.9c0,0,0.2,53,0.1,53
				C201.7,249,201.7,249,201.8,249z"/>
		</g>
		<path fill="#716558" d="M183.7,263.2c6-5.2,7.6-16.1,15.2-19.3c0.9-0.4,1.8-0.6,2.8-0.8c10.8,0.4,16.6,13.2,22.6,20.5
			c0.3,1,0.5,2,0.8,3.1c-0.2,1.1-0.5,2.2-0.8,3.2c-2.8,8.3-10.7,14.3-19.9,14.3c-9.3,0-17.3-6.2-20-14.6c-0.3-1-0.5-1.9-0.7-2.9
			C183.6,265.6,183.6,264.4,183.7,263.2z"/>
		<path fill="#655B4F" d="M201.8,243.1c10.8,0.4,16.6,13.2,22.6,20.5c0.3,1,0.5,2,0.8,3.1c-0.2,1.1-0.5,2.2-0.8,3.2
			c-2.8,8.3-10.7,14.3-19.9,14.3c-0.9,0-1.8-0.1-2.7-0.2L201.8,243.1z"/>
	</g>
	<polygon opacity="0.5" fill="#FDF0C9" enable-background="new    " points="281.2,115.9 163.5,291.2 218,291.1 	"/>
	<path fill="#F1F1F2" d="M144.5,109.8c5.3,0,9.5,4.2,9.5,9.5c0,5.3-4.2,9.5-9.5,9.5h-29c-4.2,0-7.6-3.4-7.6-7.6
		c0-4.2,3.4-7.6,7.6-7.6c0.4,0,0.8,0.1,1.1,0.1l0,0c1-6.2,6.4-10.9,12.8-10.9c5.2,0,9.7,3.1,11.8,7.5
		C141.2,110.4,142.2,109.8,144.5,109.8z"/>
	<g>
		<g>
			<g>
				<defs>
					<circle id="SVGID_1_" cx="200" cy="200" r="130.9"/>
				</defs>
				<clipPath id="SVGID_2_">
					<use xlink:href="#SVGID_1_"  overflow="visible"/>
				</clipPath>
				<rect x="69.1" y="263.7" clip-path="url(#SVGID_2_)" fill="#716558" width="261.9" height="107.8"/>
			</g>
		</g>
	</g>
	<g>
		<g>
			<g>
				<defs>
					<circle id="SVGID_3_" cx="200" cy="200" r="130.9"/>
				</defs>
				<clipPath id="SVGID_4_">
					<use xlink:href="#SVGID_3_"  overflow="visible"/>
				</clipPath>
				<circle clip-path="url(#SVGID_4_)" fill="#FDF060" cx="287.6" cy="115.9" r="33.7"/>
			</g>
		</g>
		<g>
			<g>
				<defs>
					<circle id="SVGID_5_" cx="200" cy="200" r="130.9"/>
				</defs>
				<clipPath id="SVGID_6_">
					<use xlink:href="#SVGID_5_"  overflow="visible"/>
				</clipPath>
				<path clip-path="url(#SVGID_6_)" fill="#F1F1F2" d="M357.8,125.5c12.2,0,22,9.8,22,22c0,12.2-9.8,22-22,22h-67.2
					c-9.7,0-17.6-7.8-17.6-17.6s7.8-17.6,17.6-17.6c0.9,0,1.7,0.1,2.5,0.2l0,0c2.4-14.2,14.7-25.1,29.6-25.1
					c12.1,0,22.5,7.1,27.3,17.4C350.1,126.9,352.5,125.4,357.8,125.5z"/>
			</g>
		</g>
	</g>
	<g>
		<circle fill="#808184" cx="146" cy="122.7" r="15"/>
		<g>
			<path fill="#808184" d="M179.5,110.2c2.1-1.1,4.4-1.7,6.9-1.7c0.7,0,1.4,0.1,2.1,0.2c2-11.9,12.3-21,24.7-21
				c10.1,0,18.7,6,22.7,14.5c0,0,2-1.2,6.5-1.2c10.2,0,18.4,8.2,18.4,18.4s-8.2,18.4-18.4,18.4h-56.1H146"/>
			<circle fill="#808184" cx="191.3" cy="100.6" r="23.3"/>
			<circle fill="#808184" cx="165.2" cy="113.1" r="21.1"/>
		</g>
	</g>
</g>
</svg>
