<?xml version="1.0" encoding="utf-8"?>
<!-- Generator: Adobe Illustrator 18.1.1, SVG Export Plug-In . SVG Version: 6.00 Build 0)  -->
<!DOCTYPE svg PUBLIC "-//W3C//DTD SVG 1.1//EN" "http://www.w3.org/Graphics/SVG/1.1/DTD/svg11.dtd">
<svg version="1.1" id="Layer_1" xmlns="http://www.w3.org/2000/svg" xmlns:xlink="http://www.w3.org/1999/xlink" x="0px" y="0px"
	 viewBox="68.6 68.6 262.7 262.7" enable-background="new 68.6 68.6 262.7 262.7" xml:space="preserve">
<g>
	<g>
		<g>
			<g>
				<defs>
					<circle id="SVGID_1_" cx="200" cy="200" r="130.9"/>
				</defs>
				<clipPath id="SVGID_2_">
					<use xlink:href="#SVGID_1_"  overflow="visible"/>
				</clipPath>
				<g clip-path="url(#SVGID_2_)">
					<circle fill="#BDBAD8" cx="200" cy="200" r="130.9"/>
					<rect x="74.4" y="254.1" fill="#C1B49A" width="256.6" height="77.1"/>
				</g>
			</g>
		</g>
	</g>
	<g>
		<path fill="#A87C4F" d="M262.3,278.2c0,1.8-1.5,3.2-3.2,3.2l-118.3-0.1c-1.8,0-3.2-1.5-3.2-3.2l0.1-154.7c0-1.8,1.5-3.2,3.2-3.2
			l118.3,0.1c1.8,0,3.2,1.5,3.2,3.2L262.3,278.2z"/>
		<path fill="#9B6E51" d="M262.3,278.2c0,1.8-1.5,3.2-3.2,3.2l-118.3-0.1c-1.8,0-3.2-1.5-3.2-3.2l0.1-122l124.7,107.6L262.3,278.2z"
			/>
		<path fill="#FFFFFF" d="M251.1,260.5c0,1.8-1.5,3.2-3.2,3.2l-96.2-0.1c-1.8,0-3.2-1.5-3.2-3.2l0.1-130.5c0-1.8,1.5-3.2,3.2-3.2
			l96.2,0.1c1.8,0,3.2,1.5,3.2,3.2L251.1,260.5z"/>
		<path fill="#878787" d="M165.1,120.1c0-1.8,1.5-3.2,3.2-3.2h14.5c7.2,0,5.1-10.3,16.6-10.3c11.4,0,10.3,10.3,17.8,10.3h14.4
			c1.8,0,3.2,1.5,3.2,3.2H165.1z M200.1,109.8c-2.9,0-5.4,2.4-5.4,5.3c0,2.9,2.4,5.4,5.3,5.4s5.4-2.4,5.4-5.3
			C205.4,112.2,203,109.8,200.1,109.8z"/>
		<rect x="181.5" y="239.2" fill="#E4E4E3" width="41" height="5.8"/>
		<rect x="181.5" y="179.2" fill="#E4E4E3" width="56.9" height="5.8"/>
		<rect x="181.5" y="199.2" fill="#E4E4E3" width="37.6" height="5.8"/>
		<path fill="#E4E4E3" d="M173,208.3h-12.4v-12.4H173V208.3z M162.7,206.3h8.3V198h-8.3V206.3z"/>
		<rect x="181.5" y="219.2" fill="#E4E4E3" width="48.3" height="5.8"/>
		<path fill="#E4E4E3" d="M173,228.3h-12.4v-12.4H173V228.3z M162.7,226.3h8.3V218h-8.3V226.3z"/>
		<path fill="#E4E4E3" d="M173,188.3h-12.4v-12.4H173V188.3z M162.7,186.2h8.3v-8.3h-8.3V186.2z"/>
		<polygon fill="#FDDD25" points="167.4,206.1 162.5,201.2 164.3,199.3 167.4,202.5 176.1,193.8 177.9,195.7 		"/>
		<polygon fill="#48C1C4" points="167.4,226.3 162.5,221.4 164.3,219.5 167.4,222.7 176.1,214 177.9,215.8 		"/>
		<polygon fill="#48C1C4" points="167.4,186 162.5,181.1 164.3,179.2 167.4,182.4 176.1,173.7 177.9,175.6 		"/>
		<path fill="#E4E4E3" d="M173,248.4h-12.4V236H173V248.4z M162.7,246.3h8.3V238h-8.3V246.3z"/>
		<g>
			<path fill="#808184" d="M175.4,161.8c-0.2-0.4-0.1-1.5-0.1-2.3c-0.1-0.8,0.1-1.6,0.1-2.3c-0.1-0.8,0.1-5.7,0-6.1
				c-0.1,0.4-1.5,6.6-1.5,7.1c-0.1,0.4-0.7,3.5-0.7,3.5c-0.5,0.2-1.4,0.1-1.4,0.1c-0.3-0.3-0.4-1.6-0.5-2.1c-0.3-1.4-0.5-2.7-0.8-4
				c-0.2-0.7-0.8-3.7-1-4.5c-0.1,0.7,0.2,5.2,0.1,6c-0.1,1.1,0.1,3.4-0.1,4.4c-0.1,0.7-0.9,0.5-1.3,0.5c-0.5,0-0.9,0.1-1.1-0.3
				c-0.1-0.2,0.1-0.8,0.1-1.1c-0.2-2,0.1-3.3,0.1-5.3c0.1-0.6-0.1-1.1,0-1.7c0.1-1.5-0.2-3.4-0.1-5.2c0.1-0.9-0.1-1.3,0.1-1.7
				c0.7,0.2,2.6-0.2,3.2,0.2c0.5,0.7,0.5,2.2,0.8,3c0.2,0.6,1,4.5,1.2,4.9c0.6-1.7,1.1-6.1,1.8-8c0.3-0.3,1.5-0.1,1.8-0.2
				c0.5,0,1.2-0.1,1.6,0.2c0.2,1.5-0.1,6,0,7.1c0,0.4,0.1,5.7,0.1,6.7c0.1,0.5,0.1,0.7-0.1,1.1C177.1,162.2,175.4,161.8,175.4,161.8
				z"/>
			<path fill="#808184" d="M184.5,149.6c0.2-0.5,0.5-2,0.9-2.9c0.7-0.2,1.7-0.2,2.4,0.1c0.1,0.1-0.9,3-1.2,3.7
				c-0.9,2.2-1,3.1-1.8,5.1c0.1,1.1-0.1,2.2-0.1,3c0.1,0.7-0.1,2.5-0.1,3c-0.1,0.5-0.2,0.4-1.2,0.4c-0.7,0-1.2,0.1-1.2-0.6
				c-0.2-0.9-0.1-3.2-0.1-4.2c0.1-1.1-0.1-1.7-0.1-1.7c-0.1-0.4-0.8-2-0.9-2.3c-0.9-1.6-2.3-6.4-2.2-6.4c0.8-0.2,2.3-0.2,2.4,0.1
				c0.1,0.4,0.5,1.3,0.6,1.8c0.4,1.2,1,3.1,1.3,3.9C183.8,151.8,184.1,150.7,184.5,149.6z"/>
			<path fill="#808184" d="M197.9,156.9l-0.1-2.1c0.1-0.1,1-0.1,1.1-0.1c0.3-0.1,2.3-0.1,2.5,0.1c0,0,0.2,1,0.1,1.8
				c-0.1,1.5-0.1,3.1-0.8,4.2c-0.6,0.9-1.7,1.4-3,1.3c-1.4-0.1-2.4-0.8-3.1-1.8c-0.8-1.2-0.8-3.7-0.9-5.6c-0.1-1.9,0.3-5,1.1-6.6
				c0.8-1.7,4.2-2.1,5.7-0.6c0.5,0.6,0.9,1.5,0.9,2.6c0.1,1,0.2,1.6-0.2,2.1c-0.8,0.4-2.1,0.1-2.1,0.1c-0.4-0.3-0.1-2.2-0.5-3
				c-0.2-0.4-0.6-0.3-1-0.3c-1.4,0-1,5.9-1,5.9c-0.1,0.1,0,0.3,0,0.6c-0.1,1.2-0.1,3.2,0.8,4.1c1.3,0.5,1.5-1.4,1.5-2.5
				C198.8,156.6,199,157.1,197.9,156.9z"/>
			<path fill="#808184" d="M202.6,151.7c0.1-1,0.2-2.1,0.5-2.9c0.4-0.9,1.1-1.5,1.8-2c1.4-0.2,3.1-0.1,4,0.9
				c0.6,0.6,1.1,2.1,1.2,3.1c0.1,0.7,0.1,1.6,0.1,2.1c0.1,1.2,0.2,2.4,0.1,3.6c-0.1,1.8-0.3,3.7-1.2,4.7c-1.2,1.5-4.8,0.9-5.7-0.5
				C202.1,158.5,202.4,154.6,202.6,151.7z M204.9,155.6c0,0.3,0.1,0.8,0.1,0.9c0.1,0.3,0.1,1.2,0.3,2c0.3,0.8,0.7,1.9,1.6,1.4
				c0.5-0.7,0.7-1.9,0.7-2.9c0.2-1.9-0.1-3.2-0.2-4.7c-0.1-1.5-0.1-3.3-1.4-3.2c-0.9,0.5-0.9,1.8-0.9,3.3
				C205.1,153.4,204.9,154.6,204.9,155.6z"/>
			<path fill="#808184" d="M217.8,150.7c0.3,1.6,0.3,2.3,0.5,3.8c0.1,0.6,0.2,1.1,0.2,1.4c0.2,2,0.4,3.5,0.5,5.6
				c-0.3,0.9-2.2,0.3-2.2,0.3c-0.5-0.8-0.1-2.4-0.5-3.1c-0.9-0.1-2-0.1-2.5-0.1c-0.5,0.9-0.1,2.9-0.7,3.3c-0.4,0.3-1.9,0-1.9,0
				c-0.3-0.5,0.6-5.1,0.7-6c0.1-0.9,0.3-1.8,0.5-2.7c0.2-1.2,0.3-2,0.5-3.3c0.1-0.3,0.7-2.8,0.7-3.2c0,0,0.2-0.1,0.4-0.1
				c0.2-0.1,0.9-0.1,1.1-0.1c1.2-0.1,1.5,0.1,1.9,0.2C217.5,147.6,217.6,149.4,217.8,150.7z M214,156.6c0.7,0.1,1.6,0.1,2.2,0.1
				c-0.2-2.3-1-7.1-0.9-7.1c-0.4,0.9-0.5,2.3-0.8,3.5C214.4,154.3,214,155.3,214,156.6z"/>
			<path fill="#808184" d="M227.4,159.8c0.6,0.1,0.4,0.7,0.4,1.1c0,0.5-0.1,1.1-0.4,1.1c-0.7,0-4.7,0.1-5.3,0.1
				c-0.9-0.1-1.4-0.1-1.4-0.1c-0.1-1.8-0.1-3.6-0.1-5.4c0.1-2.4,0.1-6.4,0.1-6.4s-0.1-2.2,0.1-3.2c0.5-0.5,2.3-0.4,2.5-0.2
				c0.3,0.3,0.1,1.9,0.1,2.4c0.1,1.3-0.1,3.1-0.1,4.7c-0.1,2.3-0.2,3.8,0,5.9C223.8,160,226.4,159.6,227.4,159.8z"/>
			<path fill="#808184" d="M231.4,149.7c-0.1,0.7-0.2,2,0.5,3c0.5,0.7,1.1,0.9,1.6,1.4c0.5,0.4,1.1,0.9,1.4,1.2
				c0.8,0.9,1,2.2,0.7,3.7c-0.3,1.2-0.5,1.8-1.2,2.5c-0.2,0.3-0.6,0.4-1,0.6c-1.3,0.5-2.7-0.1-3.4-0.7c-0.3-0.2-0.8-0.7-0.9-1.1
				c-0.5-1-0.8-2.6-0.3-3.5c0.1-0.1,0.6-0.2,1-0.2c0.4-0.1,0.9-0.1,1,0.1c0.5,0.8,0.1,2.5,0.9,3c1.2,0.8,1.7-1.9,1.4-2.9
				c-0.3-0.7-1.1-1.2-1.6-1.6c-0.3-0.2-0.5-0.5-0.9-0.8c-0.3-0.3-0.7-0.5-0.9-0.8c-0.6-0.8-0.8-2.3-0.9-3.4
				c-0.1-0.9,0.2-1.6,0.5-2.3c0.2-0.3,0.7-1.1,1-1.3c1.4-1.1,4-0.7,4.9,0.9c0.3,0.5,0.3,1,0.4,1.6c0.1,0.7-0.1,2.3-0.1,2.3
				c-0.2,0.3-2,0.3-2.1,0.1c-0.3-0.9,0.1-2.4-0.8-3.1C232.5,148.4,231.6,149.1,231.4,149.7z"/>
		</g>
		<g>
			<path fill="#F1F1F2" d="M202,122.4c0,1.6-4.4,2.9-6,2.9h-46.7c-1.6,0-2.9-1.3-2.9-2.9l0,0c0-1.6,1.3-2.9,2.9-2.9H196
				C197.6,119.5,202,120.8,202,122.4L202,122.4z"/>
			<path fill="#FDCE09" d="M154.8,127.7c-0.2,0-0.3-0.1-0.4-0.1h-14.1c-1.6,0-2.1-1-2.1-1.6v-2.2h1.4v2.1c0.1,0.1,0.3,0.2,0.8,0.2
				h14.2c0.2,0.1,0.3,0.1,0.4-0.1c0.1-0.1,0.1-0.2,0.1-0.5h1.4c0,0.9-0.4,1.3-0.6,1.6C155.5,127.7,155.1,127.7,154.8,127.7z"/>
			<path fill="#D0D2D3" d="M202,122.4c0,1.6-4.4,2.9-6,2.9h-46.7c-1.6,0-2.9-1.3-2.9-2.9l0,0H202L202,122.4z"/>
			<path fill="#FDDD25" d="M136.3,122.4c0,1.7,4.6,3.1,6.4,3.1h17.4v-6.3h-17.4C140.9,119.3,136.3,120.7,136.3,122.4L136.3,122.4z"
				/>
			<path fill="#FDCE09" d="M136.3,122.4c0,1.7,4.6,3.1,6.4,3.1h17.4v-3.1H136.3L136.3,122.4z"/>
		</g>
		<path fill="#CCCBCB" d="M235.1,127.8c0,1.8-1.5,3.2-3.2,3.2l-63.4-0.1c-1.8,0-3.2-1.5-3.2-3.2V118c0-1.8,1.5-3.2,3.2-3.2h14.5
			c7.2,0,5.1-10.3,16.6-10.3c11.4,0,10.3,10.3,17.8,10.3h14.4c1.8,0,3.2,1.5,3.2,3.2V127.8z M200.1,107.7c-2.9,0-5.4,2.4-5.4,5.3
			c0,2.9,2.4,5.4,5.3,5.4s5.4-2.4,5.4-5.3C205.4,110.1,203,107.7,200.1,107.7z"/>
	</g>
	<g>
		<path fill="#D0D2D3" d="M194,307.6c-0.4-2.2,5.3-5,7.4-5.4l63-10.8c2.2-0.4,4.2,1.1,4.6,3.3l0,0c0.4,2.2-1.1,4.2-3.3,4.6l-63,10.8
			C200.7,310.6,194.4,309.8,194,307.6L194,307.6z"/>
		<path fill="#48C1C4" d="M256.5,289.5c0.3-0.1,0.4-0.1,0.5-0.1l19-3.3c2.1-0.4,3,0.9,3.2,1.6l0.5,3l-1.9,0.3l-0.5-2.9
			c-0.1-0.1-0.4-0.3-1.1-0.1l-19.2,3.3c-0.3,0.1-0.5,0.1-0.5,0.1c-0.1,0.1-0.1,0.3-0.1,0.7l-1.9,0.3c-0.2-1.2,0.2-1.9,0.5-2.2
			C255.6,289.7,256.1,289.5,256.5,289.5z"/>
		<path fill="#F1F1F2" d="M194,307.6c-0.4-2.2,5.3-5,7.4-5.4l63-10.8c2.2-0.4,4.2,1.1,4.6,3.3l0,0L194,307.6L194,307.6z"/>
		<path fill="#64A4A7" d="M282.7,292.4c-0.4-2.3-7-3.1-9.3-2.7l-23.5,4l1.5,8.4l23.5-4C277.2,297.7,283.1,294.7,282.7,292.4
			L282.7,292.4z"/>
		<path fill="#48C1C4" d="M282.7,292.4c-0.4-2.3-7-3.1-9.3-2.7l-23.5,4l0.7,4.2L282.7,292.4L282.7,292.4z"/>
	</g>
</g>
</svg>
