<?xml version="1.0" encoding="utf-8"?>
<!-- Generator: Adobe Illustrator 18.1.1, SVG Export Plug-In . SVG Version: 6.00 Build 0)  -->
<!DOCTYPE svg PUBLIC "-//W3C//DTD SVG 1.1//EN" "http://www.w3.org/Graphics/SVG/1.1/DTD/svg11.dtd">
<svg version="1.1" id="Layer_1" xmlns="http://www.w3.org/2000/svg" xmlns:xlink="http://www.w3.org/1999/xlink" x="0px" y="0px"
	 viewBox="68.6 68.6 262.7 262.7" enable-background="new 68.6 68.6 262.7 262.7" xml:space="preserve">
<g>
	<g>
		<g>
			<g>
				<defs>
					<circle id="SVGID_1_" cx="200" cy="200" r="130.9"/>
				</defs>
				<clipPath id="SVGID_2_">
					<use xlink:href="#SVGID_1_"  overflow="visible"/>
				</clipPath>
				<circle clip-path="url(#SVGID_2_)" fill="#B9D9F0" cx="200" cy="200" r="130.9"/>
			</g>
		</g>
		<g>
			<g>
				<defs>
					<circle id="SVGID_3_" cx="200" cy="200" r="130.9"/>
				</defs>
				<clipPath id="SVGID_4_">
					<use xlink:href="#SVGID_3_"  overflow="visible"/>
				</clipPath>
				<rect x="65.8" y="227.6" clip-path="url(#SVGID_4_)" fill="#89BF6B" width="265.2" height="110.7"/>
			</g>
		</g>
		<g>
			<g>
				<defs>
					<circle id="SVGID_5_" cx="200" cy="200" r="130.9"/>
				</defs>
				<clipPath id="SVGID_6_">
					<use xlink:href="#SVGID_5_"  overflow="visible"/>
				</clipPath>
				<rect x="318.6" y="216.1" clip-path="url(#SVGID_6_)" fill="#C2986B" width="6.1" height="17"/>
			</g>
		</g>
		<g>
			<g>
				<defs>
					<circle id="SVGID_7_" cx="200" cy="200" r="130.9"/>
				</defs>
				<clipPath id="SVGID_8_">
					<use xlink:href="#SVGID_7_"  overflow="visible"/>
				</clipPath>
				<path clip-path="url(#SVGID_8_)" fill="#8A9D81" d="M299.7,222.9c0,0,20.3-62.3,22-62.3s22,62.3,22,62.3c0,1.4-9.8,2.4-22,2.4
					C309.5,225.4,299.7,224.3,299.7,222.9z"/>
			</g>
		</g>
		<g>
			<g>
				<defs>
					<circle id="SVGID_9_" cx="200" cy="200" r="130.9"/>
				</defs>
				<clipPath id="SVGID_10_">
					<use xlink:href="#SVGID_9_"  overflow="visible"/>
				</clipPath>
				<path clip-path="url(#SVGID_10_)" fill="#768C6C" d="M299.7,222.9c0,0,20.3-62.3,22-62.3v64.7
					C309.5,225.4,299.7,224.3,299.7,222.9z"/>
			</g>
		</g>
		<g>
			<g>
				<defs>
					<circle id="SVGID_11_" cx="200" cy="200" r="130.9"/>
				</defs>
				<clipPath id="SVGID_12_">
					<use xlink:href="#SVGID_11_"  overflow="visible"/>
				</clipPath>
				<rect x="97.5" y="215.7" clip-path="url(#SVGID_12_)" fill="#C2986B" width="9.1" height="25.5"/>
			</g>
		</g>
		<g>
			<g>
				<defs>
					<circle id="SVGID_13_" cx="200" cy="200" r="130.9"/>
				</defs>
				<clipPath id="SVGID_14_">
					<use xlink:href="#SVGID_13_"  overflow="visible"/>
				</clipPath>
				<path clip-path="url(#SVGID_14_)" fill="#8A9D81" d="M69.1,227.6c0,0,30.5-93.6,33-93.6s33,93.6,33,93.6c0,2-14.8,3.7-33,3.7
					S69.1,229.6,69.1,227.6z"/>
			</g>
		</g>
		<g>
			<g>
				<defs>
					<circle id="SVGID_15_" cx="200" cy="200" r="130.9"/>
				</defs>
				<clipPath id="SVGID_16_">
					<use xlink:href="#SVGID_15_"  overflow="visible"/>
				</clipPath>
				<path clip-path="url(#SVGID_16_)" fill="#768C6C" d="M69.1,227.6c0,0,30.5-93.6,33-93.6v97.2C83.8,231.3,69.1,229.6,69.1,227.6z
					"/>
			</g>
		</g>
		<g>
			<g>
				<defs>
					<circle id="SVGID_17_" cx="200" cy="200" r="130.9"/>
				</defs>
				<clipPath id="SVGID_18_">
					<use xlink:href="#SVGID_17_"  overflow="visible"/>
				</clipPath>
				<path clip-path="url(#SVGID_18_)" fill="#F2F2F2" d="M81,211.2c-0.2,0-0.4-0.1-0.6-0.1c-0.9-0.4-1.3-1.3-0.9-2.1
					c0.1-0.1,3-7.9-0.7-13.3c-2.5-3.6-7.5-5.5-14.8-5.5c-0.9,0-1.6-0.8-1.6-1.6c0-0.9,0.8-1.6,1.6-1.6c8.6,0,14.4,2.3,17.6,6.9
					c4.6,6.9,1.2,16,1,16.4C82.3,210.9,81.7,211.2,81,211.2z"/>
			</g>
		</g>
		<g>
			<g>
				<defs>
					<circle id="SVGID_19_" cx="200" cy="200" r="130.9"/>
				</defs>
				<clipPath id="SVGID_20_">
					<use xlink:href="#SVGID_19_"  overflow="visible"/>
				</clipPath>
				<path clip-path="url(#SVGID_20_)" fill="#B62129" d="M184.7,292.4c-0.9,0-1.6-0.8-1.6-1.6v-8.3c0-0.9,0.8-1.6,1.6-1.6
					c0.9,0,1.6,0.8,1.6,1.6v8.3C186.4,291.6,185.6,292.4,184.7,292.4z"/>
			</g>
		</g>
		<g>
			<g>
				<defs>
					<circle id="SVGID_21_" cx="200" cy="200" r="130.9"/>
				</defs>
				<clipPath id="SVGID_22_">
					<use xlink:href="#SVGID_21_"  overflow="visible"/>
				</clipPath>
				<path clip-path="url(#SVGID_22_)" fill="#F37B35" d="M189.3,287.4c-26.6,0-55.5-19.2-67.1-44.7c-10.1-22.2-34-28.1-46.6-28.1
					H56.8c-2.7,0-4.9-2.2-4.9-4.9c0-2.7,2.2-4.9,4.9-4.9h18.8c14.9,0,43.4,7.1,55.7,33.9c8.9,19.4,30.2,34.8,50.6,38.3
					c5.5,1,6.9-0.9,9.3-0.9c4.2,0,5.7,3.7,5.7,6.5C196.9,287.4,192.1,287.4,189.3,287.4z"/>
			</g>
		</g>
		<g>
			<g>
				<defs>
					<circle id="SVGID_23_" cx="200" cy="200" r="130.9"/>
				</defs>
				<clipPath id="SVGID_24_">
					<use xlink:href="#SVGID_23_"  overflow="visible"/>
				</clipPath>
				<path clip-path="url(#SVGID_24_)" fill="#E06733" d="M189.3,287.4c-26.6,0-55.5-19.2-67.1-44.7c-10.1-22.2-34-28.1-46.6-28.1
					H56.8c-2.7,0-4.9-2.2-4.9-4.9h30.5c12,0,36.1,11.9,44.8,31.1c6,13.1,19.4,30.7,43.8,38.6c12.2,3.9,23.4,3.2,23.4,3.2
					C194.3,285.4,192.1,287.4,189.3,287.4z"/>
			</g>
		</g>
	</g>
	<polygon fill="#1773B9" points="293.3,233.3 287.6,227.6 282,227.6 283.7,234.8 	"/>
	<polygon fill="#1773B9" points="148.1,233.3 154,227.6 157.8,227.6 157.8,234.8 	"/>
	<rect x="162.7" y="151.4" fill="#5D57A2" width="116" height="3.7"/>
	<polygon fill="#C6B198" points="293.3,235.9 148.1,235.9 156.2,227.6 285.2,227.6 	"/>
	<path fill="#5D57A2" d="M162.7,230.5h-6.5v-80.6c0-1.8,1.6-3.2,3.2-3.2c1.7,0,3.2,1.5,3.2,3.2L162.7,230.5L162.7,230.5z"/>
	<g>
		<rect x="189.9" y="155.1" fill="#808080" width="2.7" height="60.1"/>
		<rect x="201.8" y="155.1" fill="#808080" width="2.7" height="60.1"/>
		<path fill="#4D4E4E" d="M196.9,217.5c-5.5,0-9.5-2.4-9.5-5.5c0-0.8,0.6-1.3,1.3-1.3c0.8,0,1.3,0.6,1.3,1.3c0,1.2,2.7,2.8,6.9,2.8
			c4.2,0,6.9-1.6,6.9-2.8c0-0.8,0.6-1.3,1.3-1.3s1.3,0.6,1.3,1.3C206.4,215.2,202.4,217.5,196.9,217.5z"/>
	</g>
	<rect x="148.1" y="233.3" fill="#0F8ECE" width="145.2" height="7.3"/>
	<path fill="#5D57A2" d="M285.2,230.5h-6.5v-80.6c0-1.8,1.6-3.2,3.2-3.2s3.2,1.5,3.2,3.2L285.2,230.5L285.2,230.5z"/>
	<g>
		<circle fill="#FFFFFF" cx="262.7" cy="285.5" r="12.4"/>
		<path fill="#CCCBCB" d="M275,284c0.5,4.5-1.5,9.1-5.6,11.8c-5.8,3.7-13.4,2.1-17.2-3.6c0,0,7.1,3.3,13.3,0.9
			C273.3,290.2,275,284,275,284z"/>
	</g>
	<g>
		<rect x="237" y="155.1" fill="#808080" width="2.7" height="60.1"/>
		<rect x="248.9" y="155.1" fill="#808080" width="2.7" height="60.1"/>
		<path fill="#4D4E4E" d="M244,217.5c-5.5,0-9.5-2.4-9.5-5.5c0-0.8,0.6-1.3,1.3-1.3c0.8,0,1.3,0.6,1.3,1.3c0,1.2,2.7,2.8,6.9,2.8
			s6.9-1.6,6.9-2.8c0-0.8,0.6-1.3,1.3-1.3c0.7,0,1.3,0.6,1.3,1.3C253.6,215.2,249.4,217.5,244,217.5z"/>
	</g>
	<path fill="#423E95" d="M159.4,230.5h-3.2v-80.6c0-1.8,1.6-3.2,3.2-3.2V230.5z"/>
	<path fill="#423E95" d="M282,230.5h-3.2v-80.6c0-1.8,1.6-3.2,3.2-3.2V230.5z"/>
</g>
</svg>
